<?xml version="1.0" encoding="UTF-8"?>
<svg width="22px" height="15px" viewBox="0 0 22 15" version="1.1" xmlns="http://www.w3.org/2000/svg" xmlns:xlink="http://www.w3.org/1999/xlink">
    <!-- Generator: Sketch 42 (36781) - http://www.bohemiancoding.com/sketch -->
    <title>icon-email-grey</title>
    <desc>Created with Sketch.</desc>
    <defs>
        <polygon id="path-1" points="0.0002 0.0004 21.308 0.0004 21.308 14.6493 0.0002 14.6493 0.0002 0.0004"></polygon>
    </defs>
    <g id="Page-1" stroke="none" stroke-width="1" fill="none" fill-rule="evenodd">
        <g id="icon-email-grey">
            <mask id="mask-2" fill="white">
                <use xlink:href="#path-1"></use>
            </mask>
            <g id="Clip-2"></g>
            <path d="M21.3082,1.5503 L21.3082,1.6123 L21.3082,1.6643 L21.3082,12.3193 C21.3082,12.9293 21.1592,13.4703 20.8612,13.9423 C20.5622,14.4133 20.1562,14.6493 19.6432,14.6493 L2.3302,14.6493 C1.7752,14.6493 1.2482,14.3993 0.7492,13.9003 C0.2502,13.4013 0.0002,12.8743 0.0002,12.3193 L0.0002,1.6643 L0.0002,1.5813 C0.0002,1.5543 0.0072,1.5263 0.0212,1.4983 C-0.0208,1.2903 0.0272,1.1103 0.1662,0.9573 C0.1942,0.9293 0.2292,0.8953 0.2702,0.8533 C0.4642,0.5903 0.7522,0.3813 1.1342,0.2293 C1.5152,0.0763 1.9142,0.0003 2.3302,0.0003 L19.6432,0.0003 C20.5452,0.0003 21.0792,0.3743 21.2462,1.1233 C21.2592,1.1653 21.2732,1.2073 21.2872,1.2483 C21.3012,1.2903 21.3082,1.3323 21.3082,1.3733 C21.3082,1.4153 21.3012,1.4563 21.2872,1.4983 C21.3012,1.5123 21.3082,1.5293 21.3082,1.5503 M1.6852,1.3523 L10.6542,8.5113 L19.6432,1.3323 L2.3302,1.3323 C2.0112,1.3323 1.7962,1.3393 1.6852,1.3523 M19.9762,12.4023 L19.9762,12.3193 L19.9762,2.7883 L11.0912,9.8843 C10.9662,9.9813 10.8202,10.0373 10.6542,10.0503 C10.4872,10.0503 10.3422,9.9953 10.2172,9.8843 L1.3322,2.7883 L1.3322,12.3193 C1.3322,12.4433 1.3872,12.5863 1.4982,12.7453 C1.6092,12.9053 1.7442,13.0403 1.9042,13.1513 C2.0632,13.2623 2.2062,13.3173 2.3302,13.3173 L19.6432,13.3173 C19.8652,13.3173 19.9762,13.0123 19.9762,12.4023" id="Fill-1" fill="#454D52" mask="url(#mask-2)"></path>
        </g>
    </g>
</svg>