<?xml version="1.0" encoding="UTF-8"?>
<svg width="37px" height="37px" viewBox="0 0 37 37" version="1.1" xmlns="http://www.w3.org/2000/svg" xmlns:xlink="http://www.w3.org/1999/xlink">
    <!-- Generator: Sketch 42 (36781) - http://www.bohemiancoding.com/sketch -->
    <title>icon-menu</title>
    <desc>Created with Sketch.</desc>
    <defs></defs>
    <g id="Page-1" stroke="none" stroke-width="1" fill="none" fill-rule="evenodd">
        <g id="icon-menu">
            <path d="M16.955,0.7798 C16.955,0.7798 0.955,0.7798 0.955,16.7798 L0.955,20.0138 C0.955,20.0138 0.955,36.0138 16.955,36.0138 L20.886,36.0138 C20.886,36.0138 36.886,36.0138 36.886,20.0138 L36.886,16.7798 C36.886,16.7798 36.886,0.7798 20.886,0.7798 L16.955,0.7798 Z" id="Fill-1" fill="#E9C6A7"></path>
            <path d="M10.9788,13.1083 L26.8618,13.1083 C27.0828,13.1083 27.2628,13.0363 27.4018,12.8913 C27.5408,12.7463 27.6108,12.5633 27.6108,12.3433 C27.6108,12.1223 27.5408,11.9423 27.4018,11.8033 C27.2628,11.6643 27.0828,11.5943 26.8618,11.5943 L10.9788,11.5943 C10.7588,11.5943 10.5788,11.6643 10.4398,11.8033 C10.3008,11.9423 10.2308,12.1223 10.2308,12.3433 C10.2308,12.4243 10.2368,12.4963 10.2478,12.5603 C10.2598,12.6243 10.2828,12.6853 10.3178,12.7433 C10.3528,12.8013 10.3928,12.8533 10.4398,12.8993 C10.5788,13.0383 10.7588,13.1083 10.9788,13.1083 M26.8618,17.6493 L10.9788,17.6493 C10.7588,17.6493 10.5788,17.7183 10.4398,17.8573 C10.3008,17.9973 10.2308,18.1773 10.2308,18.3973 C10.2308,18.4433 10.2338,18.4873 10.2398,18.5273 C10.2448,18.5683 10.2538,18.6053 10.2658,18.6403 C10.2768,18.6753 10.2918,18.7103 10.3088,18.7453 C10.3268,18.7793 10.3468,18.8143 10.3698,18.8493 C10.3928,18.8843 10.4158,18.9133 10.4398,18.9363 C10.5788,19.0753 10.7588,19.1453 10.9788,19.1453 L26.8618,19.1453 C27.0828,19.1453 27.2628,19.0753 27.4018,18.9363 C27.5408,18.7973 27.6108,18.6173 27.6108,18.3973 C27.6108,18.1773 27.5408,17.9973 27.4018,17.8573 C27.2628,17.7183 27.0828,17.6493 26.8618,17.6493 M26.8618,23.6853 L10.9788,23.6853 C10.7588,23.6853 10.5788,23.7553 10.4398,23.8943 C10.3008,24.0333 10.2308,24.2133 10.2308,24.4333 L10.2308,24.5473 C10.2308,24.5763 10.2368,24.6073 10.2478,24.6423 C10.2598,24.6773 10.2708,24.7093 10.2828,24.7383 C10.2948,24.7673 10.3088,24.7963 10.3268,24.8253 C10.3438,24.8543 10.3608,24.8833 10.3788,24.9123 C10.3958,24.9413 10.4158,24.9673 10.4398,24.9903 C10.5788,25.1293 10.7588,25.1993 10.9788,25.1993 L26.8618,25.1993 C27.0828,25.1993 27.2628,25.1273 27.4018,24.9813 C27.5408,24.8373 27.6108,24.6543 27.6108,24.4333 C27.6108,24.2133 27.5408,24.0333 27.4018,23.8943 C27.2508,23.7553 27.0708,23.6853 26.8618,23.6853" id="Fill-3" fill="#454D52"></path>
        </g>
    </g>
</svg>