<?xml version="1.0" encoding="UTF-8"?>
<svg width="24px" height="24px" viewBox="0 0 24 24" version="1.1" xmlns="http://www.w3.org/2000/svg" xmlns:xlink="http://www.w3.org/1999/xlink">
    <!-- Generator: Sketch 42 (36781) - http://www.bohemiancoding.com/sketch -->
    <title>icon-footer-twitter-hover</title>
    <desc>Created with Sketch.</desc>
    <defs></defs>
    <g id="Page-1" stroke="none" stroke-width="1" fill="none" fill-rule="evenodd">
        <g id="icon-footer-twitter-hover" transform="translate(0.000000, -1.000000)">
            <g id="Group-3" transform="translate(0.000000, 0.998300)" fill="#6A7F91">
                <path d="M11.9991,23.9999 C18.6261,23.9999 23.9981,18.6279 23.9981,12.0009 C23.9981,5.3739 18.6261,0.0019 11.9991,0.0019 C5.3721,0.0019 0.0001,5.3739 0.0001,12.0009 C0.0001,18.6279 5.3721,23.9999 11.9991,23.9999" id="Fill-1"></path>
            </g>
            <path d="M17.8716,9.3625 C17.4396,9.5485 16.9696,9.6825 16.4856,9.7355 C16.9846,9.4375 17.3646,8.9675 17.5436,8.4085 C17.0816,8.6845 16.5596,8.8855 16.0156,8.9895 C15.5766,8.5205 14.9506,8.2295 14.2576,8.2295 C12.9236,8.2295 11.8506,9.3105 11.8506,10.6365 C11.8506,10.8235 11.8726,11.0095 11.9096,11.1885 C9.9126,11.0835 8.1316,10.1305 6.9466,8.6695 C6.7376,9.0275 6.6186,9.4375 6.6186,9.8845 C6.6186,10.7185 7.0436,11.4565 7.6916,11.8885 C7.2966,11.8735 6.9236,11.7625 6.6036,11.5835 L6.6036,11.6135 C6.6036,12.7835 7.4306,13.7515 8.5336,13.9755 C8.3326,14.0275 8.1166,14.0575 7.9006,14.0575 C7.7436,14.0575 7.5946,14.0425 7.4456,14.0205 C7.7516,14.9745 8.6386,15.6675 9.6966,15.6895 C8.8696,16.3375 7.8336,16.7175 6.7076,16.7175 C6.5066,16.7175 6.3206,16.7105 6.1266,16.6885 C7.1926,17.3735 8.4596,17.7685 9.8226,17.7685 C14.2496,17.7685 16.6716,14.1025 16.6716,10.9205 C16.6716,10.8155 16.6716,10.7115 16.6646,10.6075 C17.1336,10.2645 17.5436,9.8395 17.8716,9.3625" id="Fill-4" fill="#FFFFFF"></path>
        </g>
    </g>
</svg>