<?xml version="1.0" encoding="UTF-8"?>
<svg width="37px" height="37px" viewBox="0 0 37 37" version="1.1" xmlns="http://www.w3.org/2000/svg" xmlns:xlink="http://www.w3.org/1999/xlink">
    <!-- Generator: Sketch 42 (36781) - http://www.bohemiancoding.com/sketch -->
    <title>icon-menu-book-appointment</title>
    <desc>Created with Sketch.</desc>
    <defs></defs>
    <g id="Page-1" stroke="none" stroke-width="1" fill="none" fill-rule="evenodd">
        <g id="icon-menu-book-appointment">
            <path d="M16.6222,0.9265 C16.6222,0.9265 0.6222,0.9265 0.6222,16.9265 L0.6222,20.1605 C0.6222,20.1605 0.6222,36.1605 16.6222,36.1605 L20.5532,36.1605 C20.5532,36.1605 36.5532,36.1605 36.5532,20.1605 L36.5532,16.9265 C36.5532,16.9265 36.5532,0.9265 20.5532,0.9265 L16.6222,0.9265 Z" id="Fill-5" fill="#697F91"></path>
            <path d="M25.4186,12.7445 C25.5606,12.8255 25.6726,12.9345 25.7526,13.0715 C25.8336,13.2095 25.8736,13.3635 25.8736,13.5345 L25.8736,24.9195 C25.8736,25.1655 25.7866,25.3795 25.6106,25.5595 C25.4346,25.7395 25.2196,25.8295 24.9636,25.8295 L12.2126,25.8295 C12.0506,25.8295 11.8986,25.7895 11.7566,25.7085 C11.6146,25.6285 11.5026,25.5165 11.4226,25.3745 C11.3416,25.2325 11.3016,25.0805 11.3016,24.9195 L11.3016,13.5345 C11.3016,13.2785 11.3886,13.0625 11.5646,12.8865 C11.7406,12.7115 11.9556,12.6235 12.2126,12.6235 L15.8556,12.6235 L15.8556,11.7125 C15.8556,11.5895 15.9006,11.4825 15.9906,11.3925 C16.0806,11.3025 16.1876,11.2575 16.3106,11.2575 C16.4336,11.2575 16.5406,11.3025 16.6306,11.3925 C16.7206,11.4825 16.7666,11.5895 16.7666,11.7125 L16.7666,12.6235 L20.4096,12.6235 L20.4096,11.7125 C20.4096,11.5895 20.4546,11.4825 20.5446,11.3925 C20.6346,11.3025 20.7416,11.2575 20.8646,11.2575 C20.9876,11.2575 21.0946,11.3025 21.1846,11.3925 C21.2746,11.4825 21.3196,11.5895 21.3196,11.7125 L21.3196,12.6235 L24.9636,12.6235 C25.1246,12.6235 25.2766,12.6645 25.4186,12.7445 L25.4186,12.7445 Z M24.9636,13.5345 L21.3196,13.5345 L21.3196,13.9895 C21.3196,14.1135 21.2746,14.2195 21.1846,14.3095 C21.0946,14.4005 20.9876,14.4455 20.8646,14.4455 C20.7416,14.4455 20.6346,14.4005 20.5446,14.3095 C20.4546,14.2195 20.4096,14.1135 20.4096,13.9895 L20.4096,13.5345 L16.7666,13.5345 L16.7666,13.9895 C16.7666,14.1135 16.7206,14.2195 16.6306,14.3095 C16.5406,14.4005 16.4336,14.4455 16.3106,14.4455 C16.1876,14.4455 16.0806,14.4005 15.9906,14.3095 C15.9006,14.2195 15.8556,14.1135 15.8556,13.9895 L15.8556,13.5345 L12.2126,13.5345 L12.2126,24.9195 L24.9636,24.9195 L24.9636,13.5345 Z M21.4556,18.4085 C21.3646,18.3185 21.3196,18.2115 21.3196,18.0885 L21.3196,17.1775 C21.3196,17.0545 21.3646,16.9475 21.4556,16.8575 C21.5456,16.7675 21.6516,16.7225 21.7756,16.7225 L22.6866,16.7225 C22.8096,16.7225 22.9166,16.7675 23.0066,16.8575 C23.0966,16.9475 23.1416,17.0545 23.1416,17.1775 L23.1416,18.0885 C23.1416,18.2115 23.0966,18.3185 23.0066,18.4085 C22.9166,18.4985 22.8096,18.5435 22.6866,18.5435 L21.7756,18.5435 C21.6516,18.5435 21.5456,18.4985 21.4556,18.4085 L21.4556,18.4085 Z M21.4556,22.0515 C21.3646,21.9615 21.3196,21.8545 21.3196,21.7315 L21.3196,20.8205 C21.3196,20.6975 21.3646,20.5905 21.4556,20.5005 C21.5456,20.4105 21.6516,20.3655 21.7756,20.3655 L22.6866,20.3655 C22.8096,20.3655 22.9166,20.4105 23.0066,20.5005 C23.0966,20.5905 23.1416,20.6975 23.1416,20.8205 L23.1416,21.7315 C23.1416,21.8545 23.0966,21.9615 23.0066,22.0515 C22.9166,22.1415 22.8096,22.1865 22.6866,22.1865 L21.7756,22.1865 C21.6516,22.1865 21.5456,22.1415 21.4556,22.0515 L21.4556,22.0515 Z M19.1636,20.3795 C19.2066,20.3895 19.2446,20.4035 19.2776,20.4225 C19.3106,20.4415 19.3416,20.4645 19.3706,20.4935 C19.3986,20.5215 19.4226,20.5525 19.4416,20.5855 C19.4606,20.6195 19.4746,20.6565 19.4846,20.6995 C19.4936,20.7425 19.4986,20.7825 19.4986,20.8205 L19.4986,21.7315 C19.4986,21.8545 19.4536,21.9615 19.3636,22.0515 C19.2726,22.1415 19.1666,22.1865 19.0426,22.1865 L18.1326,22.1865 C18.0846,22.1865 18.0376,22.1795 17.9896,22.1655 C17.9426,22.1515 17.8996,22.1295 17.8616,22.1015 C17.8236,22.0725 17.7906,22.0395 17.7626,22.0015 C17.7336,21.9635 17.7126,21.9215 17.6986,21.8735 C17.6836,21.8265 17.6766,21.7795 17.6766,21.7315 L17.6766,20.8205 C17.6766,20.6975 17.7216,20.5905 17.8126,20.5005 C17.9026,20.4105 18.0086,20.3655 18.1326,20.3655 L19.0426,20.3655 C19.0806,20.3655 19.1216,20.3705 19.1636,20.3795 L19.1636,20.3795 Z M19.2206,16.7575 C19.2726,16.7815 19.3206,16.8145 19.3636,16.8575 C19.4056,16.8995 19.4396,16.9475 19.4626,16.9995 C19.4866,17.0515 19.4986,17.1115 19.4986,17.1775 L19.4986,18.0885 C19.4986,18.2115 19.4536,18.3185 19.3636,18.4085 C19.2726,18.4985 19.1666,18.5435 19.0426,18.5435 L18.1326,18.5435 C18.0086,18.5435 17.9026,18.4985 17.8126,18.4085 C17.7216,18.3185 17.6766,18.2115 17.6766,18.0885 L17.6766,17.1775 C17.6766,17.0545 17.7216,16.9475 17.8126,16.8575 C17.9026,16.7675 18.0086,16.7225 18.1326,16.7225 L19.0426,16.7225 C19.1096,16.7225 19.1686,16.7345 19.2206,16.7575 L19.2206,16.7575 Z M15.5776,16.7575 C15.6296,16.7815 15.6776,16.8145 15.7206,16.8575 C15.7626,16.8995 15.7956,16.9475 15.8196,16.9995 C15.8436,17.0515 15.8556,17.1115 15.8556,17.1775 L15.8556,18.0885 C15.8556,18.2115 15.8106,18.3185 15.7206,18.4085 C15.6296,18.4985 15.5236,18.5435 15.3996,18.5435 L14.4896,18.5435 C14.3656,18.5435 14.2586,18.4985 14.1686,18.4085 C14.0786,18.3185 14.0336,18.2115 14.0336,18.0885 L14.0336,17.1775 C14.0336,17.0545 14.0786,16.9475 14.1686,16.8575 C14.2586,16.7675 14.3656,16.7225 14.4896,16.7225 L15.3996,16.7225 C15.4666,16.7225 15.5256,16.7345 15.5776,16.7575 L15.5776,16.7575 Z M15.5206,20.3795 C15.5636,20.3895 15.6016,20.4035 15.6346,20.4225 C15.6676,20.4415 15.6986,20.4645 15.7276,20.4935 C15.7556,20.5215 15.7796,20.5525 15.7986,20.5855 C15.8176,20.6195 15.8316,20.6565 15.8416,20.6995 C15.8506,20.7425 15.8556,20.7825 15.8556,20.8205 L15.8556,21.7315 C15.8556,21.8545 15.8106,21.9615 15.7206,22.0515 C15.6296,22.1415 15.5236,22.1865 15.3996,22.1865 L14.4896,22.1865 C14.3656,22.1865 14.2586,22.1415 14.1686,22.0515 C14.0786,21.9615 14.0336,21.8545 14.0336,21.7315 L14.0336,20.8205 C14.0336,20.6975 14.0786,20.5905 14.1686,20.5005 C14.2586,20.4105 14.3656,20.3655 14.4896,20.3655 L15.3996,20.3655 C15.4376,20.3655 15.4786,20.3705 15.5206,20.3795 L15.5206,20.3795 Z" id="Fill-7" fill="#FEFEFE"></path>
        </g>
    </g>
</svg>