<?xml version="1.0" encoding="UTF-8"?>
<svg width="14px" height="11px" viewBox="0 0 14 11" version="1.1" xmlns="http://www.w3.org/2000/svg" xmlns:xlink="http://www.w3.org/1999/xlink">
    <!-- Generator: Sketch 42 (36781) - http://www.bohemiancoding.com/sketch -->
    <title>icon-share-twitter</title>
    <desc>Created with Sketch.</desc>
    <defs></defs>
    <g id="Page-1" stroke="none" stroke-width="1" fill="none" fill-rule="evenodd">
        <g id="icon-share-twitter" fill="#A2A6A9">
            <path d="M13.191,1.272 C12.706,1.481 12.178,1.632 11.634,1.691 C12.195,1.356 12.622,0.828 12.823,0.201 C12.304,0.51 11.718,0.736 11.107,0.853 C10.613,0.326 9.91,0 9.132,0 C7.633,0 6.428,1.213 6.428,2.703 C6.428,2.913 6.453,3.122 6.495,3.323 C4.252,3.206 2.252,2.134 0.921,0.494 C0.686,0.895 0.552,1.356 0.552,1.858 C0.552,2.795 1.03,3.624 1.758,4.11 C1.314,4.093 0.896,3.967 0.536,3.766 L0.536,3.8 C0.536,5.114 1.465,6.202 2.704,6.453 C2.478,6.512 2.235,6.545 1.992,6.545 C1.816,6.545 1.649,6.529 1.482,6.504 C1.825,7.575 2.821,8.353 4.009,8.379 C3.08,9.107 1.917,9.534 0.653,9.534 C0.427,9.534 0.218,9.525 0,9.5 C1.197,10.27 2.62,10.714 4.152,10.714 C9.123,10.714 11.843,6.596 11.843,3.021 C11.843,2.904 11.843,2.787 11.835,2.67 C12.362,2.285 12.823,1.808 13.191,1.272" id="Fill-1"></path>
        </g>
    </g>
</svg>