<?xml version="1.0" encoding="UTF-8"?>
<svg width="18px" height="18px" viewBox="0 0 18 18" version="1.1" xmlns="http://www.w3.org/2000/svg" xmlns:xlink="http://www.w3.org/1999/xlink">
    <!-- Generator: Sketch 42 (36781) - http://www.bohemiancoding.com/sketch -->
    <title>icon-call</title>
    <desc>Created with Sketch.</desc>
    <defs>
        <polygon id="path-1" points="0.0003 0.0005 17.497 0.0005 17.497 17.437 0.0003 17.437 0.0003 0.0005"></polygon>
    </defs>
    <g id="Page-1" stroke="none" stroke-width="1" fill="none" fill-rule="evenodd">
        <g id="icon-call">
            <mask id="mask-2" fill="white">
                <use xlink:href="#path-1"></use>
            </mask>
            <g id="Clip-2"></g>
            <path d="M3.4453,0 C3.1173,0 2.8303,0.088 2.5843,0.264 C2.3963,0.393 2.1503,0.574 1.8453,0.809 C1.5413,1.055 1.1603,1.424 0.7033,1.916 C0.2343,2.432 0.0003,2.848 0.0003,3.164 C0.0933,5.566 1.8923,8.525 5.3963,12.041 C7.1543,13.787 8.7713,15.111 10.2483,16.014 C11.7243,16.916 13.0663,17.391 14.2733,17.437 L14.3083,17.437 C14.6253,17.437 15.0323,17.203 15.5303,16.734 C16.0283,16.266 16.4003,15.879 16.6463,15.574 C16.9163,15.246 17.0973,15.012 17.1913,14.871 C17.4253,14.508 17.5253,14.168 17.4903,13.852 C17.4433,13.547 17.3023,13.301 17.0683,13.113 C15.7443,12.176 14.5603,11.391 13.5173,10.758 C13.3653,10.664 13.1833,10.617 12.9723,10.617 C12.7033,10.617 12.4213,10.699 12.1293,10.863 C11.8473,11.004 11.3263,11.297 10.5643,11.742 C9.8843,11.25 9.0293,10.488 7.9983,9.457 C7.7983,9.258 7.6083,9.062 7.4263,8.868 C7.2453,8.675 7.0723,8.49 6.9083,8.314 C6.7443,8.139 6.5913,7.966 6.4513,7.796 C6.3103,7.626 6.1783,7.465 6.0553,7.312 C5.9323,7.16 5.8243,7.014 5.7303,6.873 C6.1993,6.018 6.4803,5.496 6.5743,5.309 C6.8673,4.758 6.9023,4.295 6.6793,3.92 C5.7773,2.49 4.9923,1.318 4.3243,0.404 C4.1133,0.135 3.8203,0 3.4453,0 M3.4453,1.055 L3.4803,1.055 C3.8203,1.547 4.1773,2.077 4.5523,2.646 C4.9273,3.214 5.3143,3.814 5.7133,4.447 C5.7133,4.541 5.6773,4.658 5.6073,4.799 C5.4783,5.033 5.1973,5.543 4.7633,6.328 L4.4123,6.943 L4.8343,7.488 C5.3613,8.238 6.1523,9.147 7.2073,10.213 C8.2853,11.315 9.1933,12.117 9.9313,12.621 L10.5113,13.008 L11.0913,12.656 C11.4083,12.492 11.7303,12.316 12.0583,12.129 C12.3863,11.942 12.5743,11.836 12.6213,11.813 C12.7613,11.742 12.8783,11.707 12.9723,11.707 C13.8983,12.293 15.0353,13.055 16.3833,13.992 C16.3943,14.027 16.3943,14.066 16.3833,14.106 C16.3713,14.148 16.3473,14.192 16.3123,14.238 C15.9723,14.707 15.5913,15.158 15.1703,15.592 C14.7483,16.025 14.4493,16.277 14.2733,16.348 C12.1523,16.231 9.4543,14.537 6.1783,11.268 C2.9033,7.998 1.2183,5.309 1.1253,3.199 C1.1953,3 1.4413,2.689 1.8633,2.268 C2.2963,1.834 2.7423,1.453 3.1993,1.125 C3.2693,1.078 3.3513,1.055 3.4453,1.055" id="Fill-1" fill="#ffffff" mask="url(#mask-2)"></path>
        </g>
    </g>
</svg>