<?xml version="1.0" encoding="UTF-8"?>
<svg width="36px" height="36px" viewBox="0 0 36 36" version="1.1" xmlns="http://www.w3.org/2000/svg" xmlns:xlink="http://www.w3.org/1999/xlink">
    <!-- Generator: Sketch 42 (36781) - http://www.bohemiancoding.com/sketch -->
    <title>icon-menu-call</title>
    <desc>Created with Sketch.</desc>
    <defs>
        <polygon id="path-1" points="35.931 0.986 0 0.986 0 18.6029 0 36.2198 35.931 36.2198 35.931 0.986"></polygon>
    </defs>
    <g id="Page-1" stroke="none" stroke-width="1" fill="none" fill-rule="evenodd">
        <g id="icon-menu-call" transform="translate(0.000000, -1.000000)">
            <g id="Group-11" transform="translate(0.000000, 0.014000)">
                <mask id="mask-2" fill="white">
                    <use xlink:href="#path-1"></use>
                </mask>
                <g id="Clip-10"></g>
                <path d="M16,0.9858 C16,0.9858 0,0.9858 0,16.9858 L0,20.2198 C0,20.2198 0,36.2198 16,36.2198 L19.931,36.2198 C19.931,36.2198 35.931,36.2198 35.931,20.2198 L35.931,16.9858 C35.931,16.9858 35.931,0.9858 19.931,0.9858 L16,0.9858 Z" id="Fill-9" fill="#697F91" mask="url(#mask-2)"></path>
            </g>
            <path d="M13.912,11.9528 C13.661,11.9528 13.442,12.0198 13.254,12.1548 C13.11,12.2528 12.922,12.3918 12.689,12.5708 C12.456,12.7588 12.165,13.0408 11.816,13.4178 C11.458,13.8118 11.279,14.1298 11.279,14.3708 C11.35,16.2078 12.725,18.4688 15.403,21.1568 C16.747,22.4908 17.983,23.5028 19.112,24.1928 C20.24,24.8828 21.266,25.2448 22.188,25.2808 L22.215,25.2808 C22.457,25.2808 22.768,25.1018 23.149,24.7438 C23.53,24.3858 23.814,24.0898 24.002,23.8568 C24.208,23.6058 24.347,23.4268 24.419,23.3198 C24.598,23.0418 24.674,22.7818 24.647,22.5398 C24.611,22.3078 24.504,22.1198 24.325,21.9758 C23.312,21.2598 22.408,20.6588 21.611,20.1758 C21.494,20.1038 21.355,20.0678 21.194,20.0678 C20.988,20.0678 20.773,20.1308 20.549,20.2558 C20.334,20.3638 19.936,20.5878 19.354,20.9278 C18.834,20.5518 18.18,19.9698 17.392,19.1808 C17.239,19.0288 17.094,18.8788 16.955,18.7308 C16.816,18.5838 16.684,18.4428 16.559,18.3078 C16.433,18.1738 16.317,18.0418 16.21,17.9118 C16.102,17.7818 16.001,17.6588 15.907,17.5418 C15.813,17.4258 15.73,17.3138 15.659,17.2058 C16.017,16.5528 16.232,16.1538 16.304,16.0108 C16.527,15.5898 16.554,15.2358 16.384,14.9488 C15.694,13.8558 15.094,12.9608 14.584,12.2618 C14.423,12.0558 14.199,11.9528 13.912,11.9528 M13.912,12.7588 L13.939,12.7588 C14.199,13.1348 14.472,13.5408 14.758,13.9748 C15.045,14.4098 15.341,14.8688 15.645,15.3518 C15.645,15.4238 15.618,15.5138 15.565,15.6208 C15.466,15.7998 15.251,16.1898 14.92,16.7898 L14.651,17.2598 L14.973,17.6768 C15.377,18.2498 15.981,18.9438 16.787,19.7588 C17.611,20.6008 18.306,21.2148 18.87,21.5998 L19.313,21.8958 L19.757,21.6268 C19.998,21.5008 20.245,21.3668 20.496,21.2238 C20.746,21.0808 20.89,20.9998 20.926,20.9818 C21.033,20.9278 21.122,20.9008 21.194,20.9008 C21.902,21.3488 22.771,21.9308 23.801,22.6478 C23.81,22.6748 23.81,22.7038 23.801,22.7348 C23.792,22.7668 23.774,22.7998 23.747,22.8358 C23.487,23.1938 23.196,23.5388 22.874,23.8708 C22.551,24.2018 22.323,24.3948 22.188,24.4478 C20.567,24.3588 18.505,23.0638 16.001,20.5648 C13.498,18.0658 12.21,16.0108 12.138,14.3978 C12.192,14.2458 12.38,14.0088 12.703,13.6858 C13.034,13.3548 13.375,13.0638 13.724,12.8128 C13.778,12.7768 13.84,12.7588 13.912,12.7588" id="Fill-12" fill="#FEFEFE"></path>
        </g>
    </g>
</svg>