<?xml version="1.0" encoding="UTF-8"?>
<svg width="37px" height="37px" viewBox="0 0 37 37" version="1.1" xmlns="http://www.w3.org/2000/svg" xmlns:xlink="http://www.w3.org/1999/xlink">
    <!-- Generator: Sketch 42 (36781) - http://www.bohemiancoding.com/sketch -->
    <title>icon-menu-close</title>
    <desc>Created with Sketch.</desc>
    <defs></defs>
    <g id="Page-1" stroke="none" stroke-width="1" fill="none" fill-rule="evenodd">
        <g id="icon-menu-close">
            <path d="M16.955,0.9265 C16.955,0.9265 0.955,0.9265 0.955,16.9265 L0.955,20.1605 C0.955,20.1605 0.955,36.1605 16.955,36.1605 L20.886,36.1605 C20.886,36.1605 36.886,36.1605 36.886,20.1605 L36.886,16.9265 C36.886,16.9265 36.886,0.9265 20.886,0.9265 L16.955,0.9265 Z" id="Fill-14" fill="#E9C6A7"></path>
            <path d="M24.0072,12.399 L12.7762,23.63 C12.6202,23.786 12.5422,23.962 12.5422,24.159 C12.5422,24.356 12.6202,24.533 12.7762,24.688 C12.8092,24.721 12.8412,24.75 12.8742,24.774 C12.9072,24.799 12.9402,24.82 12.9722,24.836 C13.0052,24.852 13.0402,24.867 13.0772,24.879 C13.1142,24.891 13.1532,24.902 13.1942,24.91 C13.2352,24.918 13.2722,24.922 13.3052,24.922 C13.5012,24.922 13.6782,24.844 13.8342,24.688 L25.0652,13.457 C25.2212,13.301 25.2992,13.125 25.2992,12.928 C25.2992,12.731 25.2212,12.555 25.0652,12.399 C24.9092,12.243 24.7332,12.165 24.5362,12.165 C24.3392,12.165 24.1632,12.243 24.0072,12.399" id="Fill-16" fill="#454D52"></path>
            <path d="M12.7759,13.4569 L24.0069,24.6879 C24.1629,24.8439 24.3389,24.9219 24.5359,24.9219 C24.7329,24.9219 24.9099,24.8439 25.0649,24.6879 C25.0979,24.6549 25.1269,24.6229 25.1509,24.5899 C25.1759,24.5569 25.1969,24.5239 25.2129,24.4919 C25.2289,24.4589 25.2439,24.4239 25.2559,24.3869 C25.2679,24.3499 25.2789,24.3109 25.2869,24.2699 C25.2949,24.2289 25.2989,24.1919 25.2989,24.1589 C25.2989,23.9629 25.2209,23.7859 25.0649,23.6299 L13.8339,12.3989 C13.6779,12.2429 13.5019,12.1649 13.3049,12.1649 C13.1079,12.1649 12.9319,12.2429 12.7759,12.3989 C12.6199,12.5549 12.5419,12.7309 12.5419,12.9279 C12.5419,13.1249 12.6199,13.3009 12.7759,13.4569" id="Fill-18" fill="#454D52"></path>
        </g>
    </g>
</svg>