<?xml version="1.0" encoding="UTF-8"?>
<svg width="24px" height="24px" viewBox="0 0 24 24" version="1.1" xmlns="http://www.w3.org/2000/svg" xmlns:xlink="http://www.w3.org/1999/xlink">
    <!-- Generator: Sketch 42 (36781) - http://www.bohemiancoding.com/sketch -->
    <title>icon-footer-linkedin</title>
    <desc>Created with Sketch.</desc>
    <defs>
        <polygon id="path-1" points="11.99905 0.002 23.998 0.002 23.998 24 11.99905 24 0.0001 24 0.0001 0.002 11.99905 0.002"></polygon>
        <polygon id="path-3" points="0 24.9983 23.998 24.9983 23.998 1.0003 0 1.0003"></polygon>
    </defs>
    <g id="Page-1" stroke="none" stroke-width="1" fill="none" fill-rule="evenodd">
        <g id="icon-footer-linkedin" transform="translate(0.000000, -1.000000)">
            <g id="Group-3" transform="translate(0.000000, 0.998300)">
                <mask id="mask-2" fill="white">
                    <use xlink:href="#path-1"></use>
                </mask>
                <g id="Clip-2"></g>
                <path d="M11.9991,24 C18.6261,24 23.9981,18.628 23.9981,12.001 C23.9981,5.374 18.6261,0.002 11.9991,0.002 C5.3721,0.002 0.0001,5.374 0.0001,12.001 C0.0001,18.628 5.3721,24 11.9991,24" id="Fill-1" fill="#E9C6A7" mask="url(#mask-2)"></path>
            </g>
            <mask id="mask-4" fill="white">
                <use xlink:href="#path-3"></use>
            </mask>
            <g id="Clip-5"></g>
            <path d="M6.192,18.4533 L8.751,18.4533 L8.751,10.7703 L6.192,10.7703 L6.192,18.4533 Z M8.913,8.3973 C8.906,7.6453 8.363,7.0723 7.487,7.0723 C6.618,7.0723 6.045,7.6453 6.045,8.3973 C6.045,9.1343 6.595,9.7233 7.456,9.7233 L7.471,9.7233 C8.363,9.7233 8.921,9.1343 8.913,8.3973 L8.913,8.3973 Z M17.954,14.0493 C17.954,11.6923 16.698,10.5923 15.015,10.5923 C13.635,10.5923 13.03,11.3593 12.697,11.8863 L12.712,11.8863 L12.712,10.7703 L10.162,10.7703 C10.162,10.7703 10.193,11.4913 10.162,18.4533 L12.712,18.4533 L12.712,14.1663 C12.712,13.9333 12.736,13.7083 12.798,13.5383 C12.984,13.0803 13.402,12.6073 14.108,12.6073 C15.031,12.6073 15.403,13.3133 15.403,14.3443 L15.403,18.4533 L17.954,18.4533 L17.954,14.0493 Z" id="Fill-4" fill="#454D52" mask="url(#mask-4)"></path>
        </g>
    </g>
</svg>