<?xml version="1.0" encoding="UTF-8"?>
<svg width="15px" height="15px" viewBox="0 0 15 15" version="1.1" xmlns="http://www.w3.org/2000/svg" xmlns:xlink="http://www.w3.org/1999/xlink">
    <!-- Generator: Sketch 42 (36781) - http://www.bohemiancoding.com/sketch -->
    <title>icon-share</title>
    <desc>Created with Sketch.</desc>
    <defs>
        <polygon id="path-1" points="7.49975 0 0 0 0 15 7.49975 15 14.9995 15 14.9995 0 7.49975 0"></polygon>
    </defs>
    <g id="Page-1" stroke="none" stroke-width="1" fill="none" fill-rule="evenodd">
        <g id="icon-share">
            <mask id="mask-2" fill="white">
                <use xlink:href="#path-1"></use>
            </mask>
            <g id="Clip-2"></g>
            <path d="M14.3115,11.001 C14.7705,11.46 14.9995,12.012 14.9995,12.656 C14.9995,13.301 14.7705,13.853 14.3115,14.312 C13.8525,14.77 13.3005,15 12.6565,15 C12.2365,15 11.8455,14.895 11.4845,14.685 C11.1225,14.475 10.8375,14.189 10.6275,13.828 C10.4175,13.467 10.3125,13.076 10.3125,12.656 C10.3125,12.598 10.3145,12.537 10.3195,12.473 C10.3245,12.41 10.3315,12.349 10.3415,12.29 C10.3515,12.231 10.3665,12.173 10.3855,12.114 L4.1745,8.95 C3.7065,9.546 3.0955,9.844 2.3435,9.844 C1.6995,9.844 1.1475,9.614 0.6885,9.155 C0.2295,8.696 -0.0005,8.145 -0.0005,7.5 C-0.0005,6.855 0.2295,6.304 0.6885,5.845 C1.1475,5.386 1.6995,5.156 2.3435,5.156 C2.6855,5.156 3.0055,5.225 3.3035,5.361 C3.6005,5.498 3.8575,5.689 4.0725,5.933 L10.3715,2.871 C10.3715,2.842 10.3665,2.813 10.3565,2.783 C10.3465,2.754 10.3395,2.725 10.3345,2.695 C10.3295,2.666 10.3275,2.637 10.3275,2.607 C10.3275,2.578 10.3245,2.549 10.3195,2.52 C10.3145,2.49 10.3125,2.461 10.3125,2.432 L10.3125,2.344 C10.3125,1.924 10.4175,1.533 10.6275,1.172 C10.8375,0.811 11.1225,0.525 11.4845,0.315 C11.8455,0.105 12.2365,0 12.6565,0 C13.0755,0 13.4665,0.105 13.8285,0.315 C14.1895,0.525 14.4745,0.811 14.6855,1.172 C14.8945,1.533 14.9995,1.924 14.9995,2.344 C14.9995,2.988 14.7705,3.54 14.3115,3.999 C13.8525,4.458 13.3005,4.688 12.6565,4.688 C12.2755,4.688 11.9185,4.602 11.5865,4.431 C11.2545,4.26 10.9815,4.024 10.7665,3.721 L4.5555,6.738 C4.5945,6.855 4.6265,6.98 4.6505,7.112 C4.6755,7.244 4.6875,7.373 4.6875,7.5 C4.6875,7.705 4.6585,7.91 4.5995,8.115 L10.7815,11.265 C10.9955,10.972 11.2665,10.74 11.5945,10.569 C11.9215,10.398 12.2755,10.313 12.6565,10.313 C13.3005,10.313 13.8525,10.542 14.3115,11.001 M11.2495,2.344 C11.2495,2.734 11.3865,3.067 11.6605,3.34 C11.9335,3.613 12.2655,3.75 12.6565,3.75 C13.0465,3.75 13.3785,3.613 13.6525,3.34 C13.9255,3.067 14.0625,2.734 14.0625,2.344 C14.0625,1.953 13.9255,1.621 13.6525,1.348 C13.3785,1.074 13.0465,0.938 12.6565,0.938 C12.2655,0.938 11.9335,1.074 11.6605,1.348 C11.3865,1.621 11.2495,1.953 11.2495,2.344 M3.7495,7.5 C3.7495,7.11 3.6135,6.777 3.3395,6.504 C3.0665,6.231 2.7345,6.094 2.3435,6.094 C1.9535,6.094 1.6205,6.231 1.3475,6.504 C1.0745,6.777 0.9375,7.11 0.9375,7.5 C0.9375,7.891 1.0745,8.223 1.3475,8.496 C1.6205,8.77 1.9535,8.906 2.3435,8.906 C2.7345,8.906 3.0665,8.77 3.3395,8.496 C3.6135,8.223 3.7495,7.891 3.7495,7.5 M14.0625,12.656 C14.0625,12.266 13.9255,11.934 13.6525,11.66 C13.3785,11.387 13.0465,11.25 12.6565,11.25 C12.2655,11.25 11.9335,11.387 11.6605,11.66 C11.3865,11.934 11.2495,12.266 11.2495,12.656 C11.2495,13.047 11.3865,13.379 11.6605,13.652 C11.9335,13.926 12.2655,14.063 12.6565,14.063 C13.0465,14.063 13.3785,13.926 13.6525,13.652 C13.9255,13.379 14.0625,13.047 14.0625,12.656" id="Fill-1" fill="#A2A6A9" mask="url(#mask-2)"></path>
        </g>
    </g>
</svg>