<?xml version="1.0" encoding="UTF-8"?>
<svg width="15px" height="15px" viewBox="0 0 15 15" version="1.1" xmlns="http://www.w3.org/2000/svg" xmlns:xlink="http://www.w3.org/1999/xlink">
    <!-- Generator: Sketch 42 (36781) - http://www.bohemiancoding.com/sketch -->
    <title>icon-search</title>
    <desc>Created with Sketch.</desc>
    <defs>
        <polygon id="path-1" points="14.0422876 14.7825 0 14.7825 0 0.0005 14.0422876 0.0005 14.0422876 14.7825"></polygon>
    </defs>
    <g id="Page-1" stroke="none" stroke-width="1" fill="none" fill-rule="evenodd">
        <g id="icon-search">
            <mask id="mask-2" fill="white">
                <use xlink:href="#path-1"></use>
            </mask>
            <g id="Clip-2"></g>
            <path d="M13.9451,14.1689 C14.0121,14.2409 14.0451,14.3289 14.0421,14.4319 C14.0401,14.5359 14.0001,14.6209 13.9231,14.6889 C13.8901,14.7219 13.8511,14.7459 13.8081,14.7609 C13.7651,14.7749 13.7191,14.7829 13.6711,14.7829 C13.6231,14.7829 13.5741,14.7729 13.5261,14.7539 C13.4781,14.7339 13.4371,14.7049 13.4041,14.6669 L9.0081,9.8739 C8.7631,10.0719 8.5041,10.2459 8.2321,10.3979 C7.9601,10.5489 7.6791,10.6749 7.3881,10.7769 C7.0961,10.8779 6.7961,10.9549 6.4851,11.0079 C6.1751,11.0609 5.8611,11.0869 5.5431,11.0869 C5.1731,11.0869 4.8091,11.0519 4.4531,10.9819 C4.0971,10.9129 3.7531,10.8089 3.4211,10.6719 C3.0891,10.5349 2.7721,10.3649 2.4681,10.1629 C2.1651,9.9609 1.8841,9.7279 1.6241,9.4629 C1.3641,9.2029 1.1331,8.9219 0.9311,8.6179 C0.7291,8.3149 0.5581,7.9979 0.4191,7.6659 C0.2791,7.3339 0.1741,6.9899 0.1051,6.6329 C0.0351,6.2769 0.0001,5.9139 0.0001,5.5429 C0.0001,5.1729 0.0351,4.8099 0.1051,4.4539 C0.1741,4.0979 0.2791,3.7529 0.4191,3.4209 C0.5581,3.0889 0.7291,2.7729 0.9311,2.4719 C1.1331,2.1719 1.3641,1.8889 1.6241,1.6239 C1.8841,1.3639 2.1651,1.1329 2.4681,0.9309 C2.7721,0.7289 3.0891,0.5589 3.4211,0.4219 C3.7531,0.2849 4.0971,0.1809 4.4531,0.1079 C4.8091,0.0359 5.1731,-0.0001 5.5431,-0.0001 C5.9141,-0.0001 6.2771,0.0359 6.6331,0.1079 C6.9891,0.1809 7.3331,0.2849 7.6651,0.4219 C7.9971,0.5589 8.3151,0.7289 8.6181,0.9309 C8.9211,1.1329 9.2031,1.3639 9.4631,1.6239 C9.7231,1.8889 9.9531,2.1719 10.1561,2.4719 C10.3581,2.7729 10.5281,3.0889 10.6681,3.4209 C10.8081,3.7529 10.9121,4.0979 10.9821,4.4539 C11.0521,4.8099 11.0871,5.1729 11.0871,5.5429 C11.0871,5.9039 11.0531,6.2579 10.9861,6.6049 C10.9181,6.9509 10.8201,7.2869 10.6901,7.6109 C10.5601,7.9359 10.4001,8.2469 10.2101,8.5429 C10.0201,8.8389 9.8021,9.1159 9.5561,9.3759 L13.9451,14.1689 Z M0.7361,5.5429 C0.7361,6.2079 0.8621,6.8309 1.1151,7.4129 C1.3681,7.9949 1.7121,8.5039 2.1471,8.9399 C2.5831,9.3749 3.0921,9.7189 3.6741,9.9719 C4.2561,10.2239 4.8791,10.3509 5.5431,10.3509 C6.2071,10.3509 6.8301,10.2239 7.4131,9.9719 C7.9951,9.7189 8.5041,9.3749 8.9391,8.9399 C9.3751,8.5039 9.7191,7.9949 9.9721,7.4129 C10.2241,6.8309 10.3501,6.2079 10.3501,5.5429 C10.3501,4.8839 10.2241,4.2619 9.9721,3.6779 C9.7191,3.0929 9.3751,2.5839 8.9391,2.1509 C8.5041,1.7179 7.9951,1.3749 7.4131,1.1219 C6.8301,0.8699 6.2071,0.7439 5.5431,0.7439 C4.8791,0.7439 4.2561,0.8699 3.6741,1.1219 C3.0921,1.3749 2.5831,1.7179 2.1471,2.1509 C1.7121,2.5839 1.3681,3.0929 1.1151,3.6779 C0.8621,4.2619 0.7361,4.8839 0.7361,5.5429 L0.7361,5.5429 Z" id="Fill-1" fill="#454D52" mask="url(#mask-2)"></path>
        </g>
    </g>
</svg>