<?xml version="1.0" encoding="UTF-8"?>
<svg width="17px" height="17px" viewBox="0 0 17 17" version="1.1" xmlns="http://www.w3.org/2000/svg" xmlns:xlink="http://www.w3.org/1999/xlink">
    <!-- Generator: Sketch 42 (36781) - http://www.bohemiancoding.com/sketch -->
    <title>icon-book-appointment-white</title>
    <desc>Created with Sketch.</desc>
    <defs>
        <polygon id="path-1" points="0.0004 16.947 16.947 16.947 16.947 0.0004 0.0004 0.0004 0.0004 16.947"></polygon>
    </defs>
    <g id="Page-1" stroke="none" stroke-width="1" fill="none" fill-rule="evenodd">
        <g id="icon-book-appointment-white">
            <mask id="mask-2" fill="white">
                <use xlink:href="#path-1"></use>
            </mask>
            <g id="Clip-2"></g>
            <path d="M16.4174,1.7294 C16.5824,1.8234 16.7124,1.9504 16.8064,2.1104 C16.9004,2.2704 16.9474,2.4494 16.9474,2.6484 L16.9474,15.8874 C16.9474,16.1744 16.8444,16.4224 16.6404,16.6324 C16.4364,16.8424 16.1854,16.9474 15.8874,16.9474 L1.0594,16.9474 C0.8714,16.9474 0.6954,16.8994 0.5294,16.8064 C0.3644,16.7124 0.2344,16.5824 0.1404,16.4174 C0.0464,16.2514 0.0004,16.0754 0.0004,15.8874 L0.0004,2.6484 C0.0004,2.3504 0.1024,2.0994 0.3064,1.8944 C0.5104,1.6904 0.7614,1.5884 1.0594,1.5884 L5.2964,1.5884 L5.2964,0.5294 C5.2964,0.3864 5.3484,0.2624 5.4534,0.1574 C5.5584,0.0524 5.6824,0.0004 5.8254,0.0004 C5.9684,0.0004 6.0934,0.0524 6.1984,0.1574 C6.3024,0.2624 6.3554,0.3864 6.3554,0.5294 L6.3554,1.5884 L10.5914,1.5884 L10.5914,0.5294 C10.5914,0.3864 10.6444,0.2624 10.7494,0.1574 C10.8534,0.0524 10.9784,0.0004 11.1214,0.0004 C11.2644,0.0004 11.3884,0.0524 11.4934,0.1574 C11.5984,0.2624 11.6514,0.3864 11.6514,0.5294 L11.6514,1.5884 L15.8874,1.5884 C16.0754,1.5884 16.2524,1.6354 16.4174,1.7294 L16.4174,1.7294 Z M15.8874,2.6484 L11.6514,2.6484 L11.6514,3.1774 C11.6514,3.3214 11.5984,3.4454 11.4934,3.5494 C11.3884,3.6544 11.2644,3.7074 11.1214,3.7074 C10.9784,3.7074 10.8534,3.6544 10.7494,3.5494 C10.6444,3.4454 10.5914,3.3214 10.5914,3.1774 L10.5914,2.6484 L6.3554,2.6484 L6.3554,3.1774 C6.3554,3.3214 6.3024,3.4454 6.1984,3.5494 C6.0934,3.6544 5.9684,3.7074 5.8254,3.7074 C5.6824,3.7074 5.5584,3.6544 5.4534,3.5494 C5.3484,3.4454 5.2964,3.3214 5.2964,3.1774 L5.2964,2.6484 L1.0594,2.6484 L1.0594,15.8874 L15.8874,15.8874 L15.8874,2.6484 Z M11.8084,8.3164 C11.7034,8.2114 11.6514,8.0874 11.6514,7.9434 L11.6514,6.8844 C11.6514,6.7414 11.7034,6.6174 11.8084,6.5124 C11.9134,6.4074 12.0374,6.3554 12.1804,6.3554 L13.2394,6.3554 C13.3834,6.3554 13.5074,6.4074 13.6124,6.5124 C13.7174,6.6174 13.7694,6.7414 13.7694,6.8844 L13.7694,7.9434 C13.7694,8.0874 13.7174,8.2114 13.6124,8.3164 C13.5074,8.4214 13.3834,8.4734 13.2394,8.4734 L12.1804,8.4734 C12.0374,8.4734 11.9134,8.4214 11.8084,8.3164 L11.8084,8.3164 Z M11.8084,12.5534 C11.7034,12.4484 11.6514,12.3244 11.6514,12.1804 L11.6514,11.1214 C11.6514,10.9784 11.7034,10.8544 11.8084,10.7494 C11.9134,10.6444 12.0374,10.5914 12.1804,10.5914 L13.2394,10.5914 C13.3834,10.5914 13.5074,10.6444 13.6124,10.7494 C13.7174,10.8544 13.7694,10.9784 13.7694,11.1214 L13.7694,12.1804 C13.7694,12.3244 13.7174,12.4484 13.6124,12.5534 C13.5074,12.6584 13.3834,12.7104 13.2394,12.7104 L12.1804,12.7104 C12.0374,12.7104 11.9134,12.6584 11.8084,12.5534 L11.8084,12.5534 Z M9.1434,10.6084 C9.1934,10.6194 9.2374,10.6364 9.2764,10.6584 C9.3144,10.6804 9.3504,10.7074 9.3834,10.7404 C9.4164,10.7734 9.4444,10.8094 9.4664,10.8484 C9.4884,10.8874 9.5054,10.9314 9.5164,10.9804 C9.5274,11.0304 9.5324,11.0774 9.5324,11.1214 L9.5324,12.1804 C9.5324,12.3244 9.4804,12.4484 9.3754,12.5534 C9.2704,12.6584 9.1464,12.7104 9.0034,12.7104 L7.9444,12.7104 C7.8884,12.7104 7.8334,12.7024 7.7784,12.6854 C7.7234,12.6684 7.6734,12.6444 7.6294,12.6104 C7.5854,12.5774 7.5464,12.5394 7.5134,12.4954 C7.4804,12.4514 7.4554,12.4014 7.4394,12.3464 C7.4224,12.2914 7.4144,12.2364 7.4144,12.1804 L7.4144,11.1214 C7.4144,10.9784 7.4664,10.8544 7.5714,10.7494 C7.6764,10.6444 7.8004,10.5914 7.9444,10.5914 L9.0034,10.5914 C9.0474,10.5914 9.0944,10.5974 9.1434,10.6084 L9.1434,10.6084 Z M9.2104,6.3964 C9.2704,6.4244 9.3254,6.4624 9.3754,6.5124 C9.4254,6.5624 9.4634,6.6174 9.4914,6.6774 C9.5184,6.7384 9.5324,6.8074 9.5324,6.8844 L9.5324,7.9434 C9.5324,8.0874 9.4804,8.2114 9.3754,8.3164 C9.2704,8.4214 9.1464,8.4734 9.0034,8.4734 L7.9444,8.4734 C7.8004,8.4734 7.6764,8.4214 7.5714,8.3164 C7.4664,8.2114 7.4144,8.0874 7.4144,7.9434 L7.4144,6.8844 C7.4144,6.7414 7.4664,6.6174 7.5714,6.5124 C7.6764,6.4074 7.8004,6.3554 7.9444,6.3554 L9.0034,6.3554 C9.0804,6.3554 9.1494,6.3694 9.2104,6.3964 L9.2104,6.3964 Z M4.9734,6.3964 C5.0334,6.4244 5.0894,6.4624 5.1384,6.5124 C5.1884,6.5624 5.2274,6.6174 5.2544,6.6774 C5.2824,6.7384 5.2964,6.8074 5.2964,6.8844 L5.2964,7.9434 C5.2964,8.0874 5.2434,8.2114 5.1384,8.3164 C5.0334,8.4214 4.9094,8.4734 4.7664,8.4734 L3.7074,8.4734 C3.5634,8.4734 3.4394,8.4214 3.3344,8.3164 C3.2294,8.2114 3.1774,8.0874 3.1774,7.9434 L3.1774,6.8844 C3.1774,6.7414 3.2294,6.6174 3.3344,6.5124 C3.4394,6.4074 3.5634,6.3554 3.7074,6.3554 L4.7664,6.3554 C4.8434,6.3554 4.9124,6.3694 4.9734,6.3964 L4.9734,6.3964 Z M4.9074,10.6084 C4.9564,10.6194 5.0004,10.6364 5.0394,10.6584 C5.0784,10.6804 5.1144,10.7074 5.1474,10.7404 C5.1804,10.7734 5.2074,10.8094 5.2294,10.8484 C5.2514,10.8874 5.2684,10.9314 5.2794,10.9804 C5.2904,11.0304 5.2964,11.0774 5.2964,11.1214 L5.2964,12.1804 C5.2964,12.3244 5.2434,12.4484 5.1384,12.5534 C5.0334,12.6584 4.9094,12.7104 4.7664,12.7104 L3.7074,12.7104 C3.5634,12.7104 3.4394,12.6584 3.3344,12.5534 C3.2294,12.4484 3.1774,12.3244 3.1774,12.1804 L3.1774,11.1214 C3.1774,10.9784 3.2294,10.8544 3.3344,10.7494 C3.4394,10.6444 3.5634,10.5914 3.7074,10.5914 L4.7664,10.5914 C4.8104,10.5914 4.8574,10.5974 4.9074,10.6084 L4.9074,10.6084 Z" id="Fill-1" fill="#FEFEFE" mask="url(#mask-2)"></path>
        </g>
    </g>
</svg>