<?xml version="1.0" encoding="UTF-8"?>
<svg width="16px" height="15px" viewBox="0 0 16 15" version="1.1" xmlns="http://www.w3.org/2000/svg" xmlns:xlink="http://www.w3.org/1999/xlink">
    <!-- Generator: Sketch 42 (36781) - http://www.bohemiancoding.com/sketch -->
    <title>icon-breadcrumb-home</title>
    <desc>Created with Sketch.</desc>
    <defs></defs>
    <g id="Page-1" stroke="none" stroke-width="1" fill="none" fill-rule="evenodd">
        <g id="icon-breadcrumb-home" fill="#454D52">
            <path d="M15.0496,7.8516 C15.0446,7.9786 14.9986,8.0906 14.9106,8.1886 C14.8226,8.2766 14.7146,8.3206 14.5886,8.3206 C14.4516,8.3206 14.3396,8.2716 14.2516,8.1736 L13.6216,7.5146 L13.6216,14.5316 C13.6216,14.6576 13.5746,14.7676 13.4826,14.8606 C13.3896,14.9536 13.2796,14.9996 13.1526,14.9996 L9.8716,14.9996 C9.7446,14.9996 9.6346,14.9536 9.5416,14.8606 C9.4486,14.7676 9.4026,14.6576 9.4026,14.5316 L9.4026,9.8436 L5.6676,9.8436 L5.6526,14.5316 C5.6526,14.5606 5.6476,14.5946 5.6376,14.6336 C5.6286,14.6726 5.6156,14.7066 5.6016,14.7366 C5.5866,14.7656 5.5696,14.7926 5.5496,14.8166 C5.5306,14.8416 5.5066,14.8656 5.4766,14.8906 C5.4476,14.9146 5.4186,14.9346 5.3886,14.9486 C5.3596,14.9636 5.3276,14.9756 5.2936,14.9856 C5.2596,14.9946 5.2226,14.9996 5.1836,14.9996 L1.9176,14.9996 C1.7806,14.9996 1.6686,14.9536 1.5806,14.8606 C1.4926,14.7676 1.4486,14.6576 1.4486,14.5316 L1.4486,7.5146 L0.8036,8.1736 C0.7646,8.2126 0.7166,8.2446 0.6576,8.2686 C0.5986,8.2936 0.5406,8.3086 0.4816,8.3126 C0.4236,8.3176 0.3646,8.3086 0.3056,8.2836 C0.2476,8.2596 0.1936,8.2276 0.1446,8.1886 C0.0866,8.1296 0.0446,8.0596 0.0206,7.9766 C-0.0044,7.8936 -0.0064,7.8126 0.0126,7.7346 C0.0326,7.6566 0.0716,7.5836 0.1306,7.5146 L7.2056,0.1466 C7.3026,0.0486 7.4156,-0.0004 7.5426,-0.0004 C7.6106,-0.0004 7.6746,0.0126 7.7326,0.0366 C7.7916,0.0616 7.8396,0.0976 7.8796,0.1466 L14.9246,7.5146 C15.0126,7.6126 15.0546,7.7246 15.0496,7.8516 M12.6986,6.5476 L7.5426,1.1576 L2.3716,6.5476 C2.3806,6.5866 2.3856,6.6266 2.3856,6.6646 L2.3856,14.0626 L4.7156,14.0626 L4.7296,9.3746 C4.7296,9.2486 4.7756,9.1386 4.8686,9.0456 C4.9616,8.9526 5.0716,8.9066 5.1986,8.9066 L9.8716,8.9066 C9.9986,8.9066 10.1076,8.9526 10.2006,9.0456 C10.2936,9.1386 10.3406,9.2486 10.3406,9.3746 L10.3406,14.0626 L12.6836,14.0626 L12.6836,6.6646 C12.6836,6.6266 12.6886,6.5866 12.6986,6.5476" id="Fill-1"></path>
        </g>
    </g>
</svg>